<svg id="Layer_1" data-name="Layer 1" xmlns="http://www.w3.org/2000/svg" viewBox="0 0 108 114.05"><defs><style>.cls-1{fill:#0c0d77;}.cls-2{fill:#946000;}</style></defs><title>MW_logo_in_San_Diego_State_colors2</title><path class="cls-1" d="M54.84,1.16V115.21l26.38-10.42L86.5,89.57l6,10.82,0,.09,16.34-6.17L107,90.59V26.12l1.83-3.71-11-4.33V76.92l-5.3,1V16l-12.4-4.89V80.32l-7.34,1.41V8.23l-18-7.07ZM17.18,15.9l0,.09,6,10.8L27,16l-9.8-.11ZM36.9,34.65l-7.34,1.41v69.19l7.34-2V34.65ZM17,38.47l-5.14,1V98.27l5.31-1.12V38.49l-.17,0Z" transform="translate(-0.84 -1.16)"/><path class="cls-2" d="M54.84,1.16,28.46,11.58l0,.05L23.18,26.79,17.16,16l0-.08L.84,22.07l1.83,3.7V90.25L.84,94l11,4.31V39.44l5.3-1v61.93l12.4,4.89V36.06l7.34-1.41v73.5l18,7.06V1.16Zm25.29,10-7.34,2V81.73l7.34-1.41V11.1Zm17.7,7-5.3,1.15v58.7l5.3-1V18.08ZM86.5,89.58l-3.78,10.77,9.78.13,0-.09-6-10.82Z" transform="translate(-0.84 -1.16)"/></svg>
